<?xml version="1.0" encoding="UTF-8"?>
<svg width="500" height="500" fill="none" viewBox="8.001 -56 496 496" xmlns="http://www.w3.org/2000/svg">
<path d="M256-56C119.033-56 8 55.033 8 192c.041 9.64.62 18.912 1.725 28.266C81.197 242.77 165.479 256 256 256s174.803-13.23 246.275-35.734A247.723 247.723 0 0 0 503.999 192C504 55.033 392.966-56 256-56zm64 232c-44.153 0-80-35.847-80-80s35.847-80 80-80 80 35.847 80 80-35.847 80-80 80zm175.29 80.264C424.712 276.539 343.341 288 256 288S87.287 276.54 16.711 256.264C45.06 362.02 141.3 440 256.001 440s210.94-77.98 239.288-183.736zM320 72c-13.246 0-24 10.754-24 24s10.754 24 24 24 24-10.754 24-24-10.754-24-24-24z" fill="#363636"/>
</svg>
