<?xml version="1.0" encoding="UTF-8"?>
<svg width="500" height="500" fill="none" viewBox="0 -64 448 512" xmlns="http://www.w3.org/2000/svg">
<path d="M386 166c8.8 0 16-7.2 16-16V54c0-8.8-7.2-16-16-16h-13.5C347.8-18.5 291.6-58 226-58S104.2-18.5 79.5 38H66c-8.8 0-16 7.2-16 16v96c0 8.8 7.2 16 16 16h13.5c24.7 56.5 80.9 96 146.5 96s121.8-39.5 146.5-96H386zm-40-88v24c0 53-43 96-96 96h-48c-53 0-96-43-96-96V78c0-22.1 21.5-40 48-40h144c26.5 0 48 17.9 48 40zm-72 72 12-36 36-12-36-12-12-36-12 36-36 12 36 12zM122.4 263.4C54.9 270.5 2 327 2 396.4v9.6c0 26.5 21.5 48 48 48h80v-64c0-17.7 14.3-32 32-32h128c17.7 0 32 14.3 32 32v64h80c26.5 0 48-21.5 48-48v-9.6c0-69.4-52.9-125.9-120.4-133C299.7 282.7 264.2 294 226 294s-73.7-11.3-103.6-30.6zM178 390c-8.8 0-16 7.2-16 16s7.2 16 16 16 16-7.2 16-16-7.2-16-16-16zm96 0c-8.8 0-16 7.2-16 16v48h32v-48c0-8.8-7.2-16-16-16z" fill="#000"/>
</svg>
