<?xml version="1.0" encoding="UTF-8"?>
<svg width="500" height="500" fill="none" viewBox="-.00046253 -64 512 512" xmlns="http://www.w3.org/2000/svg">
<path d="m502.92 438.93c37.192-37.192-43.208-177.9-179.58-314.27-136.37-136.37-277.08-216.78-314.27-179.58-23.491 23.49 0.013672 88.309 54.817 167.21-31.256 75.418-16.293 165.47 45.025 226.79 61.319 61.32 151.38 76.281 226.79 45.025 78.904 54.804 143.72 78.309 167.21 54.817zm-156.41-337.44c35.573 35.573 77.346 82.254 113.53 130.85 2.5918-13.106 4.1162-26.489 4.1162-40.352 0-114.8-93.199-207.99-207.99-207.99-13.804 0-27.295 1.3467-40.349 3.918 46.622 34.708 92.537 75.42 130.69 113.57z" fill="#000"/>
</svg>
